<svg xmlns="http://www.w3.org/2000/svg" x="0px" y="0px"
width="48" height="48"
viewBox="0 0 40 40"
style=" fill:#b9c2d2;">
	<path d="M13,23.17a2.52,2.52,0,1,1-2.52-2.53H13Zm1.27,6.31a2.53,2.53,0,0,0,5,0V23.17a2.53,2.53,0,1,0-5,0Zm5-16.44V10.52A2.53,2.53,0,1,0,16.83,13Zm-8.84,1.27a2.53,2.53,0,0,0,0,5h6.31a2.53,2.53,0,1,0,0-5Zm16.44,5h2.52A2.53,2.53,0,1,0,27,16.83Zm-1.27-8.84a2.53,2.53,0,0,0-5.05,0v6.31a2.53,2.53,0,1,0,5.05,0ZM20.64,27v2.52A2.53,2.53,0,1,0,23.17,27Zm8.84-1.27a2.53,2.53,0,0,0,0-5.05H23.17a2.53,2.53,0,1,0,0,5.05Z"/>
</svg>