<?xml version="1.0" encoding="UTF-8"?>
<svg width="28px" height="27px" viewBox="0 0 28 27" version="1.1" xmlns="http://www.w3.org/2000/svg" xmlns:xlink="http://www.w3.org/1999/xlink">
    <!-- Generator: Sketch 63.1 (92452) - https://sketch.com -->
    <title>Group 9</title>
    <desc>Created with Sketch.</desc>
    <defs>
        <circle id="path-1" cx="7.8" cy="7.8" r="5.72"></circle>
    </defs>
    <g id="Setup" stroke="none" stroke-width="1" fill="none" fill-rule="evenodd">
        <g id="Documentation-Introduction" transform="translate(-1111.000000, -188.000000)">
            <g id="Group-15" transform="translate(1065.000000, 158.000000)">
                <g id="Group-13">
                    <g id="Group-11" transform="translate(47.000000, 31.000000)">
                        <g id="Group-9">
                            <g id="Group-5" transform="translate(5.200000, 5.200000)">
                                <g id="Oval" stroke-width="2">
                                    <circle stroke="#FFFFFF" stroke-linejoin="square" fill="#1E293B" fill-rule="evenodd" cx="7.8" cy="7.8" r="4.72"></circle>
                                    <circle stroke="#1E293B" cx="7.8" cy="7.8" r="6.72"></circle>
                                </g>
                                <circle id="Oval-3" stroke-opacity="0.0352128623" stroke="#1E293B" stroke-width="3" cx="7.8" cy="7.8" r="7.8"></circle>
                            </g>
                            <path d="M21.84,4.16 L21.84,1 C21.84,0.44771525 22.2877153,1.01453063e-16 22.84,0 L26,0 L26,0" id="Path-2-Copy" stroke="#1E293B" stroke-width="2" stroke-linecap="round" transform="translate(23.920000, 2.080000) scale(-1, 1) translate(-23.920000, -2.080000) "></path>
                            <path d="M0,4.16 L0,1 C-6.76353751e-17,0.44771525 0.44771525,1.01453063e-16 1,0 L4.16,0 L4.16,0" id="Path-2-Copy-2" stroke="#1E293B" stroke-width="2" stroke-linecap="round"></path>
                            <path d="M0,24.96 L0,21.8 C-6.76353751e-17,21.2477153 0.44771525,20.8 1,20.8 L4.16,20.8 L4.16,20.8" id="Path-2-Copy-3" stroke="#1E293B" stroke-width="2" stroke-linecap="round" transform="translate(2.080000, 22.880000) scale(1, -1) translate(-2.080000, -22.880000) "></path>
                            <path d="M21.84,24.96 L21.84,21.8 C21.84,21.2477153 22.2877153,20.8 22.84,20.8 L26,20.8 L26,20.8" id="Path-2-Copy-4" stroke="#1E293B" stroke-width="2" stroke-linecap="round" transform="translate(23.920000, 22.880000) scale(-1, -1) translate(-23.920000, -22.880000) "></path>
                        </g>
                    </g>
                </g>
            </g>
        </g>
    </g>
</svg>